<?xml version="1.0" standalone="no"?>
<!DOCTYPE svg PUBLIC "-//W3C//DTD SVG 20010904//EN"
 "http://www.w3.org/TR/2001/REC-SVG-20010904/DTD/svg10.dtd">
<svg version="1.0" xmlns="http://www.w3.org/2000/svg"
 width="500.000000pt" height="500.000000pt" viewBox="0 0 500.000000 500.000000"
 preserveAspectRatio="xMidYMid meet">

<g transform="translate(0.000000,500.000000) scale(0.100000,-0.100000)"
fill="#000000" stroke="none">
<path d="M0 2500 l0 -2500 2500 0 2500 0 0 2500 0 2500 -2500 0 -2500 0 0
-2500z m1975 1820 c-3 -5 -10 -10 -16 -10 -5 0 -9 5 -9 10 0 6 7 10 16 10 8 0
12 -4 9 -10z m1210 -10 c3 -5 1 -10 -4 -10 -6 0 -11 5 -11 10 0 6 2 10 4 10 3
0 8 -4 11 -10z m-945 -69 c0 -5 -7 -11 -15 -15 -9 -3 -15 0 -15 9 0 8 7 15 15
15 8 0 15 -4 15 -9z m768 -29 c2 -7 -3 -12 -12 -12 -9 0 -16 7 -16 16 0 17 22
14 28 -4z m-748 -59 c0 -5 111 -8 247 -8 199 0 266 -4 338 -18 118 -24 262
-67 360 -108 53 -22 80 -29 83 -21 2 7 8 12 14 12 6 0 8 -7 4 -15 -3 -10 6
-20 27 -31 366 -189 675 -522 818 -881 42 -107 69 -195 62 -206 -9 -15 -19 4
-48 92 -15 47 -60 148 -99 225 -66 131 -73 141 -99 141 -31 0 -56 28 -36 41 6
3 15 0 20 -7 7 -11 9 -11 9 -1 0 8 -14 34 -32 58 -22 30 -39 44 -55 44 -19 0
-23 5 -23 28 0 32 -39 75 -70 77 -27 2 -37 14 -21 25 11 6 2 20 -40 59 -129
122 -327 254 -475 317 -62 26 -65 26 -78 9 -8 -12 -19 -16 -30 -12 -19 7 -16
34 3 30 6 -2 11 1 11 5 0 16 -98 44 -130 37 -22 -5 -32 -3 -36 9 -7 19 -84 42
-93 28 -9 -13 -41 -11 -41 4 0 13 -27 19 -155 34 -163 18 -303 11 -517 -26
-34 -6 -37 -8 -31 -35 5 -26 3 -29 -21 -29 -28 0 -33 9 -14 28 6 6 10 14 7 16
-8 9 -129 -28 -128 -39 3 -28 -3 -36 -23 -33 -13 2 -22 9 -20 16 3 15 -13 11
-77 -15 -30 -13 -33 -16 -18 -25 15 -8 16 -11 2 -24 -17 -18 -37 -10 -28 11 3
8 2 15 -1 15 -16 0 -179 -87 -251 -135 -110 -71 -295 -227 -295 -247 0 -5 19
6 43 25 177 144 482 285 710 328 34 6 68 19 76 28 10 12 15 13 18 4 3 -10 20
-11 61 -7 45 5 62 12 79 33 22 25 23 25 29 5 5 -20 14 -21 162 -27 86 -4 167
-10 180 -13 19 -5 23 -3 20 12 -2 12 4 20 16 22 15 3 18 0 13 -17 -4 -16 0
-22 16 -26 136 -31 135 -31 139 -2 2 14 11 23 27 25 22 3 23 1 19 -30 l-6 -33
127 -39 c131 -41 260 -90 346 -133 51 -26 216 -124 225 -133 3 -3 32 -27 65
-52 196 -149 372 -362 483 -584 52 -104 92 -201 84 -208 -11 -12 -21 -6 -27
17 -4 12 -25 61 -48 110 -29 64 -45 87 -58 87 -21 0 -24 11 -9 26 14 14 -85
165 -103 158 -16 -6 -31 22 -21 37 7 11 -60 94 -153 190 -52 53 -69 65 -89 61
-31 -6 -30 -13 2 -43 40 -37 147 -176 193 -251 65 -108 161 -309 161 -340 0
-22 -23 -4 -36 30 -48 119 -73 162 -93 162 -23 0 -28 16 -8 23 9 3 6 16 -12
48 -25 46 -117 186 -135 205 -6 6 -37 43 -69 82 -101 122 -359 331 -392 318
-9 -3 -15 0 -15 8 0 16 -92 69 -190 111 -36 15 -74 31 -85 36 -115 49 -419 76
-640 57 -152 -14 -344 -61 -494 -123 -150 -62 -344 -176 -322 -189 14 -9 15
-36 1 -36 -5 0 -15 6 -22 14 -11 11 -22 6 -70 -31 -76 -58 -204 -187 -275
-276 -64 -79 -123 -165 -123 -177 0 -10 161 39 180 55 8 7 21 10 28 8 6 -3 60
7 120 21 322 77 572 87 572 24 0 -22 -8 -22 -34 -3 -13 10 -43 15 -82 15 -74
0 -317 -40 -469 -78 l-109 -27 -13 -70 c-22 -117 -53 -322 -53 -348 l0 -25 98
34 c95 33 212 47 212 25 0 -12 -25 -21 -57 -21 -32 0 -233 -67 -250 -83 -14
-13 -39 -257 -49 -467 -7 -161 -8 -167 -31 -149 -14 12 -15 33 -9 174 4 88 12
217 19 288 7 70 8 127 3 127 -22 0 -105 -54 -109 -72 -5 -16 -9 -18 -26 -8
-17 8 -19 15 -12 29 14 25 27 35 98 70 59 30 62 34 67 74 21 163 49 353 56
378 5 16 6 29 2 29 -4 0 -49 -14 -100 -31 -91 -30 -93 -32 -117 -80 -33 -63
-32 -71 7 -67 51 5 45 -19 -7 -26 -35 -6 -49 -13 -57 -32 -6 -13 -14 -24 -18
-24 -15 0 -19 14 -9 31 8 16 6 19 -15 19 -36 0 -76 17 -83 36 -3 8 3 27 14 42
19 28 66 142 60 148 -2 2 -29 -48 -60 -111 -50 -101 -77 -138 -77 -105 0 18
76 174 118 243 23 38 39 73 36 78 -3 5 1 9 8 10 7 0 64 69 125 152 62 84 139
181 170 216 37 41 57 72 55 84 -3 15 1 17 16 13 15 -5 36 8 83 49 90 79 225
168 351 231 117 59 334 135 441 154 44 8 67 17 67 26 0 8 5 14 10 14 6 0 10
-3 10 -7z m-379 -18 c-1 -15 -24 -12 -29 3 -3 9 2 13 12 10 10 -1 17 -7 17
-13z m1467 -54 c3 -8 -1 -12 -9 -9 -7 2 -15 10 -17 17 -3 8 1 12 9 9 7 -2 15
-10 17 -17z m-828 -30 c0 -17 -18 -21 -24 -6 -3 9 0 15 9 15 8 0 15 -4 15 -9z
m580 -111 c0 -5 -4 -10 -10 -10 -5 0 -10 5 -10 10 0 6 5 10 10 10 6 0 10 -4
10 -10z m160 -80 c0 -11 -4 -20 -9 -20 -13 0 -32 26 -24 33 13 14 33 6 33 -13z
m200 -95 c0 -8 -4 -15 -10 -15 -5 0 -10 7 -10 15 0 8 5 15 10 15 6 0 10 -7 10
-15z m-2222 -27 c-3 -7 -11 -13 -18 -13 -7 0 -15 6 -17 13 -3 7 4 12 17 12 13
0 20 -5 18 -12z m-268 -57 c0 -12 -20 -25 -27 -18 -7 7 6 27 18 27 5 0 9 -4 9
-9z m2990 -56 c0 -8 -7 -15 -15 -15 -8 0 -15 7 -15 15 0 8 7 15 15 15 8 0 15
-7 15 -15z m200 -21 c0 -8 -5 -12 -10 -9 -6 4 -8 11 -5 16 9 14 15 11 15 -7z
m-3170 -140 c0 -14 -21 -19 -33 -7 -9 9 13 34 24 27 5 -3 9 -12 9 -20z m-190
-98 c0 -3 -4 -8 -10 -11 -5 -3 -10 -1 -10 4 0 6 5 11 10 11 6 0 10 -2 10 -4z
m3370 -36 c0 -11 -4 -20 -10 -20 -5 0 -10 9 -10 20 0 11 5 20 10 20 6 0 10 -9
10 -20z m-79 -63 c-13 -13 -26 -3 -16 12 3 6 11 8 17 5 6 -4 6 -10 -1 -17z
m-1501 -241 c0 -12 -6 -28 -12 -35 -11 -11 -2 -12 52 -5 103 13 215 11 215 -4
0 -9 -23 -14 -80 -16 -44 -2 -108 -9 -142 -16 l-62 -12 -6 -42 c-15 -111 -23
-282 -23 -486 1 -200 -1 -225 -16 -228 -9 -2 -17 -2 -18 0 -1 2 -4 78 -7 170
l-6 167 -77 -57 -77 -57 6 -52 c11 -94 -69 -223 -139 -223 -33 0 -48 18 -48
58 0 46 24 93 76 151 24 27 44 54 44 59 0 6 -22 33 -50 60 -56 55 -63 83 -29
126 30 38 57 50 75 35 13 -11 11 -16 -15 -36 -17 -14 -31 -32 -31 -41 0 -9 21
-37 46 -63 l46 -47 88 60 87 60 6 127 c4 70 10 155 13 188 l7 62 -39 -10
c-101 -26 -228 -73 -245 -90 -22 -22 -49 -25 -49 -6 0 34 86 74 253 117 l87
23 11 41 c14 54 27 70 45 55 8 -6 14 -21 14 -33z m-407 -101 c4 -8 -5 -56 -18
-107 -34 -127 -49 -319 -37 -488 9 -134 4 -166 -20 -142 -9 9 -15 70 -18 200
l-5 187 -29 -68 c-48 -115 -94 -150 -117 -90 -29 77 64 263 132 263 11 0 21 9
24 23 3 12 14 64 25 116 18 88 32 121 50 121 4 0 10 -7 13 -15z m1837 -260 c8
-10 10 -44 5 -123 -8 -112 0 -152 30 -152 15 0 70 65 101 118 10 17 24 32 31
32 24 0 13 -34 -30 -95 -49 -69 -106 -107 -134 -89 -36 22 -44 55 -41 162 2
56 1 102 -2 102 -4 0 -19 -14 -35 -30 -38 -40 -66 -36 -81 10 l-11 35 -29 -54
c-48 -88 -82 -131 -105 -131 -12 0 -23 8 -26 20 -5 18 -7 18 -42 -9 -70 -55
-120 -49 -150 20 l-18 40 -32 -55 c-21 -38 -37 -56 -51 -56 -27 0 -43 35 -35
76 l6 34 -45 0 c-56 0 -83 -30 -92 -102 -5 -38 -10 -48 -23 -46 -12 2 -17 18
-21 60 l-5 58 -45 -36 c-54 -43 -58 -52 -59 -127 -2 -160 -62 -318 -139 -369
-37 -24 -58 -23 -87 7 -59 58 -5 213 133 381 47 58 52 68 52 114 l0 50 -54
-56 c-59 -61 -89 -68 -94 -22 l-3 27 -39 -20 c-54 -28 -88 -17 -116 39 l-22
42 -31 -55 c-21 -37 -37 -55 -51 -55 -27 0 -43 34 -35 80 8 49 62 138 96 158
32 18 74 10 90 -19 14 -28 9 -31 -29 -17 -27 10 -34 9 -53 -7 -27 -26 -59 -88
-59 -117 0 -17 11 -5 38 42 47 81 65 84 73 12 8 -62 22 -82 57 -82 20 0 48 23
117 95 75 79 96 95 121 95 34 0 54 -16 54 -42 0 -22 -18 -24 -26 -3 -11 27
-50 17 -83 -20 -50 -58 -88 -145 -63 -145 10 0 48 41 86 93 43 58 66 47 66
-34 0 -21 4 -39 9 -39 4 0 31 18 60 41 42 33 51 46 51 72 0 18 4 38 9 46 15
24 31 1 31 -45 0 -41 2 -44 19 -34 11 5 44 10 73 10 51 1 54 2 79 43 30 49 67
72 103 63 23 -6 53 -42 44 -52 -3 -2 -18 2 -36 8 -27 10 -34 9 -53 -7 -27 -26
-59 -88 -59 -117 0 -17 11 -5 38 42 47 81 65 84 73 12 8 -61 22 -82 57 -82 31
0 112 78 112 109 0 41 28 91 51 91 18 0 20 -4 15 -25 -4 -14 -9 -46 -12 -73
l-6 -47 35 55 c58 91 67 101 90 98 14 -2 24 -14 31 -35 l9 -33 43 40 c48 44
56 47 74 25z m-2343 -52 c-3 -17 0 -36 9 -47 18 -25 18 -117 0 -159 -43 -103
-136 -79 -120 33 13 93 67 200 101 200 12 0 14 -7 10 -27z m189 16 c3 -6 1
-16 -5 -22 -7 -7 -5 -20 10 -44 56 -91 -32 -270 -102 -207 -18 16 -20 27 -16
74 9 114 84 246 113 199z m2312 -537 c2 -7 -6 -12 -17 -12 -21 0 -27 11 -14
24 9 9 26 2 31 -12z m-3423 -26 c16 -16 10 -26 -17 -26 -11 0 -18 7 -18 20 0
23 15 26 35 6z m150 -96 c4 -20 13 -30 25 -30 27 0 36 -21 16 -36 -17 -12 -15
-18 20 -101 45 -107 141 -278 171 -307 13 -11 23 -25 23 -30 0 -11 90 -124
128 -159 19 -18 32 -25 37 -18 3 6 11 9 16 5 6 -4 6 -10 -1 -18 -7 -10 2 -24
37 -57 94 -87 252 -198 363 -254 67 -34 76 -26 13 11 -226 132 -465 377 -590
606 -21 38 -30 46 -52 45 -20 -2 -27 3 -29 21 -2 12 1 22 7 22 6 0 11 -5 11
-11 0 -5 4 -8 9 -5 5 3 -9 46 -30 96 -21 50 -39 97 -39 105 0 35 18 9 54 -77
177 -422 511 -747 943 -919 248 -98 657 -98 963 2 36 12 69 25 74 30 6 5 18 9
27 9 23 0 150 57 163 74 6 8 22 16 36 19 14 4 61 30 105 59 66 44 80 57 77 77
-2 19 1 22 18 18 67 -17 394 431 416 570 3 21 11 41 17 45 6 3 18 26 28 49 17
44 39 63 39 34 0 -47 -125 -304 -206 -425 l-45 -65 42 45 c55 60 159 218 166
253 3 15 10 27 15 27 9 0 55 95 94 198 29 79 34 86 45 75 6 -6 4 -25 -4 -49
-8 -21 -12 -45 -9 -52 2 -7 -3 -21 -12 -31 -9 -10 -36 -58 -60 -108 -24 -49
-68 -128 -99 -175 -38 -59 -52 -89 -46 -100 12 -21 -18 -60 -40 -53 -23 7
-137 -120 -133 -147 2 -11 -3 -19 -12 -19 -9 -1 -20 -2 -26 -3 -5 0 -31 -19
-57 -41 -172 -145 -315 -242 -462 -317 -64 -32 -110 -58 -104 -58 26 0 204 65
296 108 72 33 102 53 108 70 7 18 15 23 31 19 41 -11 254 152 383 293 118 128
189 235 267 397 55 114 78 146 78 107 0 -8 -22 -61 -50 -117 -192 -394 -545
-710 -950 -851 -41 -15 -82 -29 -90 -33 -21 -9 -21 -9 -170 -37 -74 -14 -180
-35 -235 -46 -63 -13 -160 -23 -265 -27 -123 -4 -167 -9 -173 -19 -4 -8 -15
-14 -23 -14 -8 0 -13 4 -10 9 11 17 -19 28 -106 40 -90 12 -198 38 -302 72
-102 34 -336 155 -429 222 -287 207 -501 492 -616 820 -34 97 -36 110 -20 105
6 -2 23 -40 38 -83 37 -111 102 -246 114 -238 6 3 7 1 3 -6 -5 -7 10 -41 33
-80 175 -295 453 -538 774 -675 49 -21 94 -39 100 -41 7 -1 19 -5 27 -8 167
-64 496 -104 664 -81 60 9 59 24 -1 24 -27 0 -88 7 -137 15 -49 7 -92 13 -95
13 -3 -1 -13 2 -21 5 -43 17 -135 35 -140 27 -8 -13 -50 -1 -50 14 0 7 -23 18
-51 24 -54 13 -223 78 -292 113 -33 18 -44 19 -63 9 -33 -18 -57 -6 -51 26 4
22 -4 31 -70 75 -49 33 -82 49 -94 46 -15 -4 -21 1 -26 21 -3 16 -36 54 -77
92 -207 190 -359 422 -455 693 -29 82 -32 115 -11 102 5 -3 11 -19 15 -35z
m3343 -12 c2 -9 -6 -18 -18 -21 -14 -4 -20 0 -20 12 0 33 32 41 38 9z m-373
-39 c-8 -12 -35 -12 -35 0 0 11 22 20 33 14 4 -2 5 -9 2 -14z m-2753 -4 c0 -5
-5 -11 -11 -13 -6 -2 -11 4 -11 13 0 9 5 15 11 13 6 -2 11 -8 11 -13z m2838
-26 c0 -5 -7 -9 -15 -9 -15 0 -20 12 -9 23 8 8 24 -1 24 -14z m-2650 -9 c0 -5
-4 -10 -10 -10 -5 0 -10 5 -10 10 0 6 5 10 10 10 6 0 10 -4 10 -10z m-435 -31
c8 -25 -6 -42 -31 -37 -12 2 -20 13 -22 31 -3 23 0 27 22 27 16 0 27 -7 31
-21z m575 -9 c0 -5 -9 -10 -20 -10 -28 0 -25 -20 3 -21 l22 -2 -22 -4 c-13 -2
-23 -11 -23 -18 0 -7 10 -16 23 -18 16 -3 13 -5 -10 -6 -32 -1 -33 0 -33 37 0
21 3 42 7 45 10 11 53 8 53 -3z m170 0 c0 -5 -4 -10 -10 -10 -5 0 -10 -16 -10
-35 0 -19 -4 -35 -10 -35 -5 0 -10 16 -10 35 0 19 -4 35 -10 35 -5 0 -10 5
-10 10 0 6 14 10 30 10 17 0 30 -4 30 -10z m117 -22 c-3 -7 -5 -2 -5 12 0 14
2 19 5 13 2 -7 2 -19 0 -25z m173 22 c12 -8 9 -10 -12 -10 -35 0 -36 -16 -2
-24 34 -9 28 -40 -9 -44 -15 -2 -27 1 -27 6 0 6 9 8 20 5 12 -3 20 0 20 7 0 6
-9 14 -20 17 -22 6 -27 38 -7 46 18 8 21 8 37 -3z m300 0 c12 -8 9 -10 -12
-10 -35 0 -36 -16 -2 -24 34 -9 28 -40 -9 -44 -15 -2 -27 1 -27 6 0 6 9 8 20
5 12 -3 20 0 20 7 0 6 -9 14 -20 17 -22 6 -27 38 -7 46 18 8 21 8 37 -3z m180
0 c0 -5 -7 -10 -15 -10 -10 0 -16 -12 -17 -37 l-1 -38 -4 38 c-3 24 -9 37 -19
37 -8 0 -12 5 -9 10 3 6 19 10 36 10 16 0 29 -4 29 -10z m171 -40 c10 -22 14
-40 9 -40 -6 0 -10 5 -10 10 0 15 -48 12 -53 -2 -2 -7 -7 -11 -9 -8 -3 3 3 25
13 49 22 49 24 48 50 -9z m325 31 c13 12 24 18 24 12 0 -6 -7 -16 -15 -23 -14
-12 -13 -16 6 -37 13 -12 18 -23 12 -23 -6 0 -16 7 -23 15 -16 20 -27 19 -33
-2 -3 -10 -5 5 -4 32 0 28 2 39 4 27 l5 -24 24 23z m319 9 c3 -5 -3 -10 -14
-10 -25 0 -28 -20 -3 -21 16 -1 16 -2 0 -6 -10 -2 -18 -13 -18 -24 0 -10 -4
-19 -10 -19 -11 0 -14 73 -3 83 10 10 41 8 48 -3z m169 -3 c12 -9 17 -23 14
-42 -2 -24 -8 -31 -30 -33 -38 -4 -56 30 -33 64 18 28 24 29 49 11z m190 0
c12 -9 17 -23 14 -42 -2 -24 -8 -31 -30 -33 -38 -4 -56 30 -33 64 18 28 24 29
49 11z m198 -10 c21 -34 -1 -67 -44 -67 -26 0 -28 3 -28 38 0 21 3 42 7 46 10
10 56 -3 65 -17z m-2512 -21 c0 -28 4 -35 23 -39 16 -3 13 -5 -10 -6 -32 -1
-33 0 -33 39 0 22 5 40 10 40 6 0 10 -15 10 -34z m1450 0 c0 -28 4 -35 23 -39
16 -3 13 -5 -10 -6 -32 -1 -33 0 -33 39 0 22 5 40 10 40 6 0 10 -15 10 -34z
m950 14 c0 -5 -7 -10 -16 -10 -8 0 -12 5 -9 10 3 6 10 10 16 10 5 0 9 -4 9
-10z m-2624 -15 c9 -8 13 -19 9 -24 -9 -16 -35 -1 -35 20 0 23 7 24 26 4z
m884 -125 c0 -5 -7 -10 -15 -10 -10 0 -16 -12 -17 -37 l-1 -38 -4 38 c-3 24
-9 37 -19 37 -8 0 -12 5 -9 10 3 6 19 10 36 10 16 0 29 -4 29 -10z m174 -6
c19 -19 20 -35 3 -58 -8 -11 -23 -17 -38 -14 -31 4 -40 55 -13 75 23 17 29 16
48 -3z m186 6 c12 -8 9 -10 -13 -10 -34 0 -46 -25 -23 -48 12 -13 19 -13 28
-4 9 9 9 12 0 12 -7 0 -12 5 -12 10 0 6 7 10 15 10 9 0 15 -9 15 -25 0 -26
-19 -32 -54 -19 -22 8 -21 60 2 73 21 13 24 13 42 1z m180 0 c0 -5 -9 -10 -20
-10 -28 0 -25 -20 3 -21 l22 -2 -22 -4 c-13 -2 -23 -11 -23 -18 0 -7 10 -16
23 -18 16 -3 13 -5 -10 -6 -32 -1 -33 0 -33 37 0 21 3 42 7 45 10 11 53 8 53
-3z m170 0 c0 -5 -7 -10 -15 -10 -10 0 -16 -12 -17 -37 l-1 -38 -4 38 c-3 24
-9 37 -19 37 -8 0 -12 5 -9 10 3 6 19 10 36 10 16 0 29 -4 29 -10z m145 -30
c17 0 25 7 28 23 2 12 4 0 4 -28 0 -27 -2 -40 -4 -27 -3 14 -12 22 -24 22 -11
0 -24 -10 -29 -22 -7 -18 -9 -12 -8 27 0 28 3 40 5 28 3 -16 11 -23 28 -23z
m205 30 c0 -5 -9 -10 -20 -10 -28 0 -25 -20 3 -21 19 0 20 -1 4 -8 -25 -9 -23
-25 5 -33 20 -5 18 -6 -9 -7 -32 -1 -33 0 -33 44 0 41 2 45 25 45 14 0 25 -4
25 -10z m156 4 c18 -5 21 -13 20 -46 -1 -37 -2 -39 -15 -19 -17 27 -31 27 -31
1 0 -11 -4 -20 -10 -20 -11 0 -14 73 -3 83 8 8 12 8 39 1z m-1806 -49 c0 -8
-4 -15 -9 -15 -13 0 -22 16 -14 24 11 11 23 6 23 -9z m2375 -3 c0 -18 -20 -15
-23 4 -3 10 1 15 10 12 7 -3 13 -10 13 -16z m150 -38 c0 -12 -8 -20 -22 -22
-26 -4 -28 0 -11 28 15 24 33 21 33 -6z m-2590 -24 c3 -5 -1 -10 -9 -10 -9 0
-16 5 -16 10 0 6 4 10 9 10 6 0 13 -4 16 -10z m2505 -88 c0 -5 -6 -16 -13 -27
-16 -20 -33 -5 -23 20 6 16 36 21 36 7z m-2570 -191 c0 -22 -16 -36 -24 -22
-8 12 3 41 15 41 5 0 9 -9 9 -19z m835 -61 c3 -5 1 -10 -4 -10 -6 0 -11 5 -11
10 0 6 2 10 4 10 3 0 8 -4 11 -10z m905 -14 c0 -11 -19 -15 -25 -6 -3 5 1 10
9 10 9 0 16 -2 16 -4z m-1070 -57 c0 -5 -7 -9 -15 -9 -15 0 -20 12 -9 23 8 8
24 -1 24 -14z m1308 9 c-6 -18 -25 -20 -31 -3 -5 10 0 15 14 15 12 0 19 -5 17
-12z m43 -81 c-13 -13 -26 -3 -16 12 3 6 11 8 17 5 6 -4 6 -10 -1 -17z m-1506
2 c4 -6 5 -12 2 -15 -7 -7 -37 7 -37 17 0 13 27 11 35 -2z m1145 -44 c0 -8 -4
-15 -10 -15 -5 0 -10 7 -10 15 0 8 5 15 10 15 6 0 10 -7 10 -15z m-680 -21 c0
-2 -7 -4 -15 -4 -8 0 -15 4 -15 10 0 5 7 7 15 4 8 -4 15 -8 15 -10z m-321 -10
c3 -3 0 -9 -6 -15 -15 -15 -43 -4 -43 16 0 12 6 15 23 9 12 -3 24 -8 26 -10z
m1271 -43 c0 -22 -29 -36 -43 -22 -6 6 -4 15 4 25 19 21 39 20 39 -3z m-970
-31 c0 -5 -7 -10 -15 -10 -8 0 -15 5 -15 10 0 6 7 10 15 10 8 0 15 -4 15 -10z
m-150 -17 c0 -20 -28 -27 -45 -13 -23 19 -18 27 15 27 19 0 30 -5 30 -14z
m960 13 c0 -18 -15 -36 -30 -36 -27 0 -34 17 -13 29 18 11 43 14 43 7z m-150
-55 c0 -5 -7 -12 -16 -15 -22 -9 -24 -8 -24 9 0 8 9 15 20 15 11 0 20 -4 20
-9z"/>
<path d="M2215 3953 c-80 -9 -166 -25 -227 -40 -63 -16 -67 -18 -52 -34 9 -10
13 -23 9 -28 -9 -15 0 -14 85 13 154 49 322 76 490 78 65 1 104 5 90 9 -25 7
-340 9 -395 2z"/>
<path d="M1790 3851 c-100 -37 -236 -104 -221 -109 11 -4 16 -32 6 -32 -3 0
-13 5 -23 11 -15 10 -29 5 -78 -26 -90 -58 -214 -156 -211 -168 1 -6 -10 -17
-25 -24 -15 -7 -39 -28 -55 -45 -15 -17 -47 -49 -70 -71 -24 -22 -43 -48 -43
-58 0 -10 -12 -31 -26 -46 -27 -29 -91 -148 -124 -233 l-19 -49 62 29 c40 20
67 39 77 59 8 16 33 55 56 87 24 34 41 70 40 84 -1 17 5 26 19 28 10 2 71 57
135 121 124 127 247 223 372 294 66 37 76 46 63 57 -13 10 -13 14 0 27 17 16
35 9 35 -13 0 -18 -4 -19 80 20 41 19 68 36 61 40 -6 4 -11 16 -11 27 0 25
-10 24 -100 -10z m-374 -272 c3 -6 0 -15 -7 -20 -22 -14 -29 -11 -29 11 0 21
24 27 36 9z m-136 -119 c0 -5 -4 -10 -10 -10 -5 0 -10 5 -10 10 0 6 5 10 10
10 6 0 10 -4 10 -10z"/>
<path d="M3360 3716 c0 -2 36 -30 80 -61 44 -30 111 -85 149 -120 38 -36 71
-65 74 -65 2 0 7 9 10 20 4 16 -8 30 -53 65 -32 25 -63 45 -68 45 -6 0 -12 4
-14 9 -6 15 -178 119 -178 107z"/>
<path d="M945 2983 c-16 -8 -40 -25 -53 -37 l-24 -21 24 -6 c47 -14 57 -9 78
31 29 57 27 61 -25 33z"/>
<path d="M2253 2327 c-65 -74 -93 -157 -54 -157 38 0 96 108 89 165 l-3 29
-32 -37z"/>
<path d="M2041 2631 c-31 -31 -60 -99 -67 -158 -6 -44 -5 -47 10 -33 20 19 89
186 84 202 -3 7 -13 3 -27 -11z"/>
<path d="M2971 2277 c-74 -98 -105 -169 -106 -236 0 -68 20 -86 62 -55 40 29
72 92 88 171 20 96 29 193 19 193 -5 0 -33 -33 -63 -73z"/>
<path d="M1627 2497 c-29 -92 -17 -144 18 -77 16 30 21 130 7 130 -5 0 -16
-24 -25 -53z"/>
<path d="M1820 2524 c-28 -74 -33 -134 -10 -134 13 0 40 77 40 115 0 43 -17
54 -30 19z"/>
<path d="M2978 832 c-86 -27 -114 -39 -107 -48 7 -9 32 -3 98 21 85 32 157 65
136 63 -5 0 -63 -17 -127 -36z"/>
<path d="M2769 783 c-9 -2 -76 -10 -150 -17 l-134 -14 160 2 c144 1 160 3 163
19 3 17 -6 19 -39 10z"/>
<path d="M2525 1810 c-8 -13 -1 -24 14 -19 6 3 7 10 2 18 -6 10 -10 10 -16 1z"/>
<path d="M3334 1816 c-9 -24 4 -48 23 -44 12 2 18 12 18 28 0 29 -32 41 -41
16z"/>
<path d="M3524 1816 c-9 -24 4 -48 23 -44 12 2 18 12 18 28 0 29 -32 41 -41
16z"/>
<path d="M3710 1799 c0 -24 4 -30 18 -27 10 2 18 14 20 31 3 22 -1 27 -17 27
-17 0 -21 -6 -21 -31z"/>
<path d="M2035 1660 c-3 -6 -3 -19 0 -31 10 -29 39 -20 43 14 3 21 -1 27 -17
27 -11 0 -23 -5 -26 -10z"/>
<path d="M3100 1660 c0 -5 7 -10 15 -10 8 0 15 5 15 10 0 6 -7 10 -15 10 -8 0
-15 -4 -15 -10z"/>
</g>
</svg>
