<?xml version="1.0" standalone="no"?>
<!DOCTYPE svg PUBLIC "-//W3C//DTD SVG 20010904//EN"
 "http://www.w3.org/TR/2001/REC-SVG-20010904/DTD/svg10.dtd">
<svg version="1.0" xmlns="http://www.w3.org/2000/svg"
 width="500.000000pt" height="500.000000pt" viewBox="0 0 500.000000 500.000000"
 preserveAspectRatio="xMidYMid meet">

<g transform="translate(0.000000,500.000000) scale(0.100000,-0.100000)"
fill="#000000" stroke="none">
<path d="M0 2500 l0 -2500 2500 0 2500 0 0 2500 0 2500 -2500 0 -2500 0 0
-2500z m1972 1818 c-9 -9 -15 -9 -24 0 -9 9 -7 12 12 12 19 0 21 -3 12 -12z
m1213 -8 c3 -5 1 -10 -4 -10 -6 0 -11 5 -11 10 0 6 2 10 4 10 3 0 8 -4 11 -10z
m-947 -72 c-6 -18 -25 -20 -31 -3 -5 10 0 15 14 15 12 0 19 -5 17 -12z m770
-26 c2 -7 -3 -12 -12 -12 -9 0 -16 7 -16 16 0 17 22 14 28 -4z m-746 -62 c2
-7 48 -8 142 -1 274 17 552 -25 776 -119 98 -41 110 -45 110 -31 0 6 5 11 10
11 6 0 10 -8 10 -17 0 -12 33 -36 96 -72 304 -169 571 -457 715 -768 60 -129
104 -262 91 -275 -8 -8 -13 -8 -16 3 -58 168 -106 279 -174 397 -31 53 -40 62
-58 58 -13 -4 -27 0 -34 9 -14 17 -4 38 16 31 21 -8 18 0 -18 49 -22 29 -41
44 -55 45 -22 0 -28 9 -23 39 2 18 -49 71 -64 65 -19 -7 -43 13 -30 26 9 9 -6
28 -55 74 -126 118 -308 238 -457 302 -62 26 -65 26 -78 9 -8 -12 -19 -16 -30
-12 -19 7 -16 34 3 30 6 -2 11 1 11 5 0 16 -98 44 -130 37 -22 -5 -32 -3 -36
9 -8 20 -84 42 -93 27 -8 -13 -47 -7 -44 7 3 11 -105 28 -242 37 -93 7 -293
-7 -402 -27 -61 -11 -62 -12 -56 -40 5 -25 3 -28 -21 -28 -28 0 -33 9 -14 28
6 6 10 14 7 16 -8 9 -129 -28 -128 -39 3 -26 -2 -35 -21 -35 -10 0 -23 6 -27
14 -7 11 -17 9 -58 -9 -27 -13 -42 -24 -32 -24 21 -1 23 -27 1 -35 -21 -8 -34
1 -27 19 8 21 2 20 -90 -26 -144 -72 -240 -140 -390 -274 -74 -66 -91 -96 -24
-42 176 143 452 273 687 323 47 10 91 25 98 34 9 10 15 12 18 3 4 -8 23 -10
62 -6 45 4 61 11 78 31 20 25 21 25 35 5 13 -18 29 -20 169 -26 85 -3 163 -9
174 -13 15 -6 17 -4 11 14 -5 18 -2 22 15 22 17 0 21 -5 17 -19 -4 -17 5 -21
65 -35 89 -20 86 -20 90 6 3 26 36 37 49 17 4 -7 3 -21 -2 -30 -12 -23 -11
-29 4 -29 30 0 330 -105 415 -145 82 -39 258 -139 272 -155 3 -3 32 -27 65
-52 237 -180 435 -442 549 -727 31 -76 30 -71 12 -71 -8 0 -18 10 -21 23 -4
12 -25 61 -48 110 -29 64 -45 87 -58 87 -21 0 -24 11 -9 26 14 14 -85 165
-103 158 -16 -6 -31 22 -21 37 7 11 -60 94 -153 190 -52 53 -69 65 -89 61 -31
-6 -30 -13 2 -43 38 -35 144 -173 193 -250 52 -84 152 -293 154 -324 4 -47
-16 -29 -43 40 -40 105 -58 135 -80 135 -11 0 -20 5 -20 10 0 6 5 10 10 10 6
0 10 5 10 11 0 30 -134 225 -239 347 -94 110 -347 310 -377 298 -8 -3 -14 1
-14 8 0 16 -115 81 -205 116 -33 13 -65 27 -70 31 -41 30 -423 76 -525 65 -30
-4 -87 -8 -127 -11 -90 -5 -278 -47 -392 -87 -108 -37 -266 -113 -352 -170
-57 -37 -65 -46 -56 -60 15 -23 3 -32 -23 -18 -24 13 -39 3 -147 -91 -72 -62
-213 -219 -213 -236 0 -7 -4 -13 -10 -13 -9 0 -85 -106 -96 -134 -4 -11 14 -8
78 11 46 15 90 32 99 40 9 7 18 10 21 7 4 -3 68 8 145 25 350 77 553 84 553
20 0 -23 -8 -23 -34 -4 -26 19 -101 19 -235 -1 -104 -15 -410 -80 -419 -88
-11 -12 -72 -367 -72 -421 0 -22 0 -22 98 11 88 30 193 46 208 31 13 -13 -9
-27 -43 -27 -40 0 -241 -65 -260 -83 -13 -13 -39 -266 -49 -484 -4 -79 -10
-143 -14 -143 -35 0 -39 105 -15 387 8 98 17 186 19 196 2 9 0 17 -6 17 -23 0
-107 -54 -111 -72 -5 -16 -9 -18 -26 -8 -17 9 -19 15 -11 30 13 24 57 55 113
79 42 18 46 23 51 63 30 226 47 348 55 376 5 17 7 32 3 32 -4 0 -48 -14 -99
-31 -88 -31 -92 -33 -117 -79 -34 -62 -33 -70 7 -67 51 3 47 -17 -7 -28 -35
-8 -52 -17 -59 -33 -12 -27 -33 -23 -29 5 2 17 -4 21 -36 27 -57 9 -71 30 -48
70 25 42 69 156 52 134 -7 -10 -33 -61 -57 -113 -24 -52 -50 -95 -56 -95 -7 0
-13 5 -13 11 0 19 84 191 124 253 20 31 34 61 31 66 -3 4 1 10 8 13 8 3 66 74
130 159 63 84 139 180 169 212 34 38 52 67 50 79 -3 15 0 18 13 13 12 -4 47
18 114 72 228 184 497 311 769 363 40 7 62 16 62 25 0 16 17 19 22 4z m-374
-12 c-7 -19 -38 -22 -38 -4 0 10 9 16 21 16 12 0 19 -5 17 -12z m1460 -57 c3
-8 -1 -12 -9 -9 -7 2 -15 10 -17 17 -3 8 1 12 9 9 7 -2 15 -10 17 -17z m-828
-30 c0 -17 -18 -21 -24 -6 -3 9 0 15 9 15 8 0 15 -4 15 -9z m580 -111 c0 -5
-4 -10 -10 -10 -5 0 -10 5 -10 10 0 6 5 10 10 10 6 0 10 -4 10 -10z m160 -80
c0 -22 -7 -25 -29 -11 -16 10 -6 31 15 31 8 0 14 -9 14 -20z m200 -95 c0 -8
-7 -15 -15 -15 -9 0 -12 6 -9 15 4 8 10 15 15 15 5 0 9 -7 9 -15z m-2222 -27
c-3 -7 -11 -13 -18 -13 -7 0 -15 6 -17 13 -3 7 4 12 17 12 13 0 20 -5 18 -12z
m-268 -57 c0 -12 -20 -25 -27 -18 -7 7 6 27 18 27 5 0 9 -4 9 -9z m2990 -56
c0 -8 -7 -15 -15 -15 -8 0 -15 7 -15 15 0 8 7 15 15 15 8 0 15 -7 15 -15z
m196 -32 c-10 -10 -19 5 -10 18 6 11 8 11 12 0 2 -7 1 -15 -2 -18z m-3169
-118 c7 -20 -2 -29 -21 -22 -9 4 -13 13 -10 22 8 19 23 19 31 0z m-187 -109
c0 -3 -4 -8 -10 -11 -5 -3 -10 -1 -10 4 0 6 5 11 10 11 6 0 10 -2 10 -4z
m3370 -36 c0 -11 -4 -20 -10 -20 -5 0 -10 9 -10 20 0 11 5 20 10 20 6 0 10 -9
10 -20z m-79 -63 c-13 -13 -26 -3 -16 12 3 6 11 8 17 5 6 -4 6 -10 -1 -17z
m-1505 -224 c4 -15 2 -34 -6 -46 -12 -19 -10 -20 42 -12 169 24 228 22 228 -8
0 -11 -10 -13 -44 -10 -35 4 -233 -21 -243 -31 -11 -11 -25 -241 -28 -471 -3
-201 -7 -281 -16 -284 -23 -7 -29 27 -29 181 l0 158 -52 -37 c-97 -67 -106
-79 -101 -128 11 -93 -67 -225 -133 -225 -39 0 -54 16 -54 58 0 46 24 93 76
151 24 27 44 54 44 59 0 6 -22 33 -50 60 -62 61 -65 89 -16 138 19 19 41 34
49 34 28 0 26 -27 -4 -49 -16 -12 -29 -29 -29 -38 0 -10 21 -39 47 -65 l46
-47 56 41 c31 22 70 49 87 59 l31 19 6 138 c4 75 10 158 13 185 6 42 5 47 -13
47 -37 0 -244 -71 -264 -91 -24 -24 -49 -25 -49 0 0 26 78 62 222 103 62 18
116 37 120 42 4 6 8 20 8 31 0 23 26 65 40 65 5 0 13 -12 16 -27z m-402 -119
c3 -8 -6 -61 -21 -117 -26 -97 -28 -114 -30 -362 -2 -166 -6 -261 -13 -263
-23 -8 -33 58 -33 220 0 92 -1 167 -3 165 -1 -1 -12 -27 -24 -57 -49 -117
-103 -154 -124 -83 -21 74 71 253 130 253 13 0 24 2 24 3 0 24 53 233 61 243
15 18 25 18 33 -2z m1835 -258 c7 -8 10 -55 9 -134 -4 -174 16 -186 102 -59
26 38 52 66 62 67 23 0 16 -19 -34 -92 -65 -97 -120 -121 -160 -67 -15 20 -19
42 -19 106 0 45 3 93 7 107 8 34 -6 33 -41 -4 -16 -16 -37 -30 -48 -30 -12 0
-23 11 -30 30 -6 17 -14 30 -18 30 -4 0 -23 -30 -42 -67 -48 -91 -72 -116 -97
-103 -11 6 -20 18 -20 26 0 10 -12 5 -40 -18 -68 -54 -139 -38 -158 36 l-8 30
-32 -57 c-21 -38 -39 -57 -51 -57 -31 0 -44 26 -37 71 l6 40 -47 -3 c-46 -3
-49 -5 -70 -48 -13 -24 -23 -57 -23 -72 0 -31 -18 -47 -31 -27 -5 8 -9 38 -9
68 l0 53 -47 -38 c-27 -21 -49 -38 -51 -39 -1 -1 -7 -49 -12 -106 -17 -181
-66 -308 -133 -350 -43 -25 -63 -24 -94 7 -23 23 -25 31 -20 83 3 36 17 81 37
122 34 67 114 181 149 213 16 15 21 31 21 71 l0 52 -54 -54 c-60 -60 -89 -66
-94 -21 l-3 27 -39 -20 c-59 -31 -111 -8 -129 57 -7 27 -7 27 -39 -29 -33 -59
-58 -71 -82 -42 -30 36 31 187 91 223 32 18 74 10 90 -19 14 -28 4 -35 -25
-19 -14 7 -31 10 -40 7 -23 -9 -65 -77 -72 -117 -5 -31 -2 -28 33 30 46 78 65
83 74 19 18 -122 52 -121 174 6 75 79 96 95 121 95 34 0 54 -16 54 -42 0 -22
-18 -24 -26 -3 -16 40 -79 0 -124 -79 -54 -94 -34 -116 30 -33 78 99 71 93 86
72 8 -10 14 -38 14 -62 0 -24 4 -43 8 -43 21 0 103 75 108 99 3 14 7 36 10 49
8 38 29 19 34 -31 4 -38 8 -45 20 -37 8 5 40 10 70 10 54 1 56 2 81 43 30 49
67 72 103 63 25 -6 53 -42 42 -54 -3 -3 -17 0 -30 8 -14 7 -31 10 -40 7 -23
-9 -65 -77 -72 -117 -5 -31 -2 -28 33 30 46 78 65 83 74 19 10 -65 25 -89 56
-89 32 0 113 79 113 110 0 41 28 90 51 90 19 0 21 -4 14 -32 -3 -18 -9 -51
-12 -73 l-5 -40 37 60 c20 33 44 68 53 78 24 27 55 18 66 -20 l9 -33 43 40
c48 44 56 47 73 26z m-2336 -32 c3 -4 2 -15 -4 -26 -7 -14 -7 -23 1 -33 55
-67 4 -242 -69 -233 -54 6 -62 80 -21 191 31 83 69 124 93 101z m182 -4 c4 -6
2 -17 -4 -23 -7 -9 -5 -21 9 -42 46 -70 -2 -225 -69 -225 -39 0 -54 29 -48 94
9 110 84 241 112 196z m2313 -538 c2 -7 -6 -12 -17 -12 -21 0 -27 11 -14 24 9
9 26 2 31 -12z m-3423 -26 c16 -16 10 -26 -17 -26 -11 0 -18 7 -18 20 0 23 15
26 35 6z m150 -96 c4 -20 13 -30 25 -30 26 0 36 -21 17 -35 -15 -11 -15 -16 4
-66 44 -116 164 -333 196 -352 7 -4 13 -13 13 -19 0 -12 87 -122 128 -161 19
-18 32 -25 37 -18 3 6 11 9 16 5 6 -4 6 -10 -1 -19 -21 -26 193 -196 355 -281
50 -26 88 -45 85 -42 -3 3 -45 33 -95 67 -210 141 -408 355 -525 568 -19 35
-27 42 -46 37 -26 -7 -53 29 -32 42 6 4 14 2 16 -4 2 -7 7 -10 12 -7 4 3 -10
45 -31 95 -21 50 -39 97 -39 105 0 35 18 9 54 -77 175 -417 506 -742 931 -913
251 -101 651 -105 955 -10 47 15 92 33 101 41 9 8 18 12 21 8 8 -7 129 44 153
66 11 9 31 20 45 23 14 4 61 30 105 59 66 44 80 57 77 77 -2 19 1 22 18 18 68
-18 409 455 415 574 1 17 8 34 15 39 7 5 21 28 29 51 16 43 41 64 41 35 0 -46
-104 -266 -186 -396 -47 -73 -49 -79 -19 -45 52 58 155 216 162 248 3 15 10
27 15 27 9 0 55 95 94 198 29 79 34 86 45 75 6 -6 4 -25 -4 -49 -8 -21 -12
-45 -9 -52 2 -7 -3 -21 -11 -30 -8 -9 -36 -60 -62 -112 -26 -52 -71 -132 -100
-176 -34 -52 -50 -86 -45 -94 16 -26 -12 -64 -41 -55 -20 7 -135 -122 -131
-147 2 -10 -3 -19 -10 -20 -7 0 -18 -2 -25 -2 -7 -1 -34 -19 -60 -41 -178
-149 -346 -263 -485 -331 -99 -47 -84 -49 48 -4 138 47 265 111 275 138 7 18
15 23 31 19 37 -10 218 125 349 260 143 148 218 256 306 441 51 105 73 135 73
95 0 -27 -100 -221 -163 -315 -111 -166 -260 -319 -435 -446 -97 -70 -310
-178 -417 -212 -38 -13 -74 -25 -80 -29 -5 -3 -14 -6 -20 -7 -21 -3 -232 -45
-280 -55 -153 -32 -225 -41 -370 -46 -120 -4 -162 -9 -168 -19 -4 -8 -15 -14
-23 -14 -8 0 -13 4 -10 9 11 17 -19 28 -106 40 -305 41 -624 190 -871 406
-158 138 -305 330 -397 520 -77 158 -132 334 -91 289 5 -5 19 -40 31 -79 30
-95 101 -246 111 -239 5 3 6 -1 4 -8 -8 -19 95 -180 185 -289 159 -195 382
-360 623 -463 49 -21 94 -39 100 -41 7 -1 19 -5 27 -8 167 -64 496 -104 664
-81 60 9 59 24 -1 24 -27 0 -88 7 -137 15 -49 7 -92 13 -95 13 -3 -1 -13 1
-21 4 -54 20 -135 37 -138 28 -5 -15 -29 -12 -48 7 -10 10 -62 32 -116 50 -54
18 -138 51 -186 73 -74 35 -90 39 -109 29 -32 -17 -56 -4 -51 26 5 21 -5 31
-69 75 -50 34 -81 49 -94 45 -14 -5 -20 0 -25 20 -3 14 -34 52 -68 83 -180
168 -297 326 -392 527 -51 109 -106 263 -98 276 9 15 22 1 29 -31z m3343 -17
c2 -15 -2 -19 -20 -17 -13 1 -24 3 -26 3 -1 1 2 10 8 22 14 24 34 20 38 -8z
m-373 -34 c-8 -12 -35 -12 -35 0 0 11 22 20 33 14 4 -2 5 -9 2 -14z m-2750 2
c7 -12 -12 -24 -25 -16 -11 7 -4 25 10 25 5 0 11 -4 15 -9z m2835 -32 c0 -5
-7 -9 -15 -9 -15 0 -20 12 -9 23 8 8 24 -1 24 -14z m-2654 -16 c-10 -10 -19 5
-10 18 6 11 8 11 12 0 2 -7 1 -15 -2 -18z m-431 -24 c8 -25 -6 -42 -31 -37
-12 2 -20 13 -22 31 -3 23 0 27 22 27 16 0 27 -7 31 -21z m375 -44 c0 -27 4
-34 23 -38 16 -3 13 -5 -10 -6 -33 -1 -33 0 -33 45 0 27 4 43 10 39 6 -3 10
-21 10 -40z m200 35 c0 -5 -9 -10 -20 -10 -28 0 -25 -20 3 -21 l22 -2 -22 -4
c-13 -2 -23 -11 -23 -18 0 -7 10 -16 23 -18 16 -3 13 -5 -10 -6 -32 -1 -33 0
-33 37 0 21 3 42 7 45 10 11 53 8 53 -3z m170 0 c0 -5 -4 -10 -10 -10 -5 0
-10 -16 -10 -35 0 -19 -4 -35 -10 -35 -5 0 -10 16 -10 35 0 25 -4 35 -16 35
-8 0 -12 5 -9 10 3 6 19 10 36 10 16 0 29 -4 29 -10z m123 -15 c-7 -21 -13
-19 -13 6 0 11 4 18 10 14 5 -3 7 -12 3 -20z m167 15 c12 -8 9 -10 -12 -10
-35 0 -36 -16 -2 -24 17 -5 24 -12 22 -24 -4 -20 -46 -29 -62 -12 -8 9 -4 10
17 5 17 -5 27 -3 27 4 0 6 -4 11 -8 11 -5 0 -17 6 -27 14 -16 12 -17 16 -6 30
15 18 29 20 51 6z m300 0 c12 -8 9 -10 -12 -10 -35 0 -36 -16 -2 -24 17 -5 24
-12 22 -24 -4 -20 -46 -29 -62 -12 -8 9 -4 10 17 5 17 -5 27 -3 27 4 0 6 -4
11 -8 11 -5 0 -17 6 -27 14 -16 12 -17 16 -6 30 15 18 29 20 51 6z m180 0 c0
-5 -4 -10 -10 -10 -5 0 -10 -16 -10 -35 0 -19 -4 -35 -10 -35 -5 0 -10 16 -10
35 0 24 -5 35 -15 35 -8 0 -15 5 -15 10 0 6 16 10 35 10 19 0 35 -4 35 -10z
m174 -42 c8 -21 11 -38 5 -38 -5 0 -9 5 -9 10 0 15 -48 12 -53 -2 -2 -7 -7
-11 -9 -8 -3 3 3 25 14 49 20 48 28 47 52 -11z m159 -31 c15 -3 12 -5 -10 -6
-32 -1 -33 0 -33 37 0 53 14 63 18 14 2 -33 7 -42 25 -45z m163 64 c13 12 24
18 24 12 0 -6 -7 -16 -15 -23 -14 -12 -13 -16 6 -37 13 -12 18 -23 12 -23 -6
0 -16 7 -23 15 -16 20 -27 19 -33 -2 -3 -10 -5 5 -4 32 0 28 2 39 4 27 l5 -24
24 23z m319 9 c3 -5 -3 -10 -14 -10 -28 0 -27 -20 2 -21 l22 -2 -22 -4 c-15
-3 -23 -12 -23 -24 0 -10 -4 -19 -10 -19 -5 0 -10 20 -10 45 0 41 2 45 24 45
14 0 28 -4 31 -10z m180 -15 c19 -29 2 -65 -30 -65 -37 0 -55 42 -30 70 22 24
43 23 60 -5z m190 0 c19 -29 2 -65 -30 -65 -37 0 -55 42 -30 70 22 24 43 23
60 -5z m176 15 c21 -12 25 -50 7 -68 -7 -7 -25 -12 -40 -12 -26 0 -28 3 -28
38 0 53 17 65 61 42z m-101 -20 c0 -5 -7 -10 -16 -10 -8 0 -12 5 -9 10 3 6 10
10 16 10 5 0 9 -4 9 -10z m-2620 -15 c14 -17 5 -36 -15 -28 -16 6 -21 43 -6
43 5 0 14 -7 21 -15z m880 -125 c0 -5 -4 -10 -10 -10 -5 0 -10 -16 -10 -35 0
-19 -4 -35 -10 -35 -5 0 -10 16 -10 35 0 24 -5 35 -15 35 -8 0 -15 5 -15 10 0
6 16 10 35 10 19 0 35 -4 35 -10z m174 -6 c33 -32 10 -79 -36 -72 -17 2 -24
11 -26 31 -6 49 30 73 62 41z m186 6 c12 -8 9 -10 -13 -10 -34 0 -46 -25 -23
-48 12 -13 19 -13 28 -4 9 9 9 12 0 12 -7 0 -12 5 -12 10 0 6 7 10 15 10 9 0
15 -10 15 -26 0 -23 -3 -25 -32 -22 -28 3 -33 7 -36 33 -3 19 2 33 14 42 21
15 24 16 44 3z m180 0 c0 -5 -9 -10 -20 -10 -28 0 -25 -20 3 -21 l22 -2 -22
-4 c-13 -2 -23 -11 -23 -18 0 -7 10 -16 23 -18 16 -3 13 -5 -10 -6 -32 -1 -33
0 -33 37 0 21 3 42 7 45 10 11 53 8 53 -3z m170 0 c0 -5 -4 -10 -10 -10 -5 0
-10 -16 -10 -35 0 -19 -4 -35 -10 -35 -5 0 -10 16 -10 35 0 24 -5 35 -15 35
-8 0 -15 5 -15 10 0 6 16 10 35 10 19 0 35 -4 35 -10z m130 -16 c0 -24 38 -17
43 9 2 12 5 0 5 -28 1 -39 -1 -45 -8 -27 -12 27 -40 29 -40 2 0 -11 -4 -20
-10 -20 -5 0 -10 21 -10 46 0 27 4 43 10 39 6 -3 10 -13 10 -21z m225 16 c4
-6 -5 -10 -19 -10 -32 0 -35 -20 -3 -21 19 0 20 -1 4 -8 -25 -9 -23 -25 5 -33
20 -5 18 -6 -9 -7 -32 -1 -33 0 -33 44 0 41 2 45 24 45 14 0 28 -4 31 -10z
m161 2 c6 -4 11 -25 11 -47 1 -34 -1 -37 -12 -22 -15 21 -35 22 -35 2 0 -8 -4
-15 -10 -15 -11 0 -14 73 -3 83 8 9 35 9 49 -1z m-1816 -47 c0 -8 -4 -15 -9
-15 -13 0 -22 16 -14 24 11 11 23 6 23 -9z m2375 5 c11 -17 -5 -32 -21 -19 -7
6 -11 15 -8 20 7 12 21 11 29 -1z m153 -42 c-2 -15 -11 -24 -25 -26 -26 -4
-28 0 -11 28 17 27 40 26 36 -2z m-2593 -28 c3 -5 -1 -10 -9 -10 -9 0 -16 5
-16 10 0 6 4 10 9 10 6 0 13 -4 16 -10z m2505 -88 c0 -5 -6 -16 -13 -27 -16
-20 -33 -5 -23 20 6 16 36 21 36 7z m-2567 -191 c3 -11 -1 -22 -9 -25 -17 -6
-26 7 -18 28 8 22 21 20 27 -3z m837 -61 c0 -5 -4 -10 -10 -10 -5 0 -10 5 -10
10 0 6 5 10 10 10 6 0 10 -4 10 -10z m900 -14 c0 -11 -19 -15 -25 -6 -3 5 1
10 9 10 9 0 16 -2 16 -4z m-1070 -51 c0 -8 -7 -15 -15 -15 -8 0 -15 7 -15 15
0 8 7 15 15 15 8 0 15 -7 15 -15z m1308 3 c-3 -7 -11 -13 -18 -13 -7 0 -15 6
-17 13 -3 7 4 12 17 12 13 0 20 -5 18 -12z m43 -81 c-13 -13 -26 -3 -16 12 3
6 11 8 17 5 6 -4 6 -10 -1 -17z m-1501 -7 c0 -18 -2 -19 -20 -8 -11 7 -20 16
-20 20 0 5 9 8 20 8 13 0 20 -7 20 -20z m1144 -35 c3 -9 0 -15 -9 -15 -16 0
-27 14 -18 24 10 10 21 7 27 -9z m-689 -15 c3 -5 -1 -10 -9 -10 -9 0 -16 5
-16 10 0 6 4 10 9 10 6 0 13 -4 16 -10z m-316 -16 c3 -3 0 -9 -6 -15 -15 -15
-43 -4 -43 16 0 12 6 15 23 9 12 -3 24 -8 26 -10z m1271 -44 c0 -20 -29 -35
-43 -21 -5 5 -2 17 9 29 20 23 34 20 34 -8z m-970 -30 c0 -5 -7 -10 -15 -10
-8 0 -15 5 -15 10 0 6 7 10 15 10 8 0 15 -4 15 -10z m804 -23 c-6 -17 -35 -23
-48 -10 -4 4 3 15 16 25 25 19 42 11 32 -15z m-954 7 c0 -20 -27 -29 -45 -14
-23 19 -18 27 15 28 20 0 30 -4 30 -14z m810 -44 c0 -10 -31 -22 -38 -16 -2 3
-2 12 1 20 6 15 37 12 37 -4z"/>
<path d="M2180 3949 c-36 -4 -106 -18 -157 -29 l-92 -21 12 -27 c6 -15 12 -28
12 -30 1 -1 22 5 46 13 128 45 363 89 464 86 33 -1 74 3 90 8 38 12 -281 12
-375 0z"/>
<path d="M2598 3943 c7 -3 16 -2 19 1 4 3 -2 6 -13 5 -11 0 -14 -3 -6 -6z"/>
<path d="M1780 3847 c-94 -37 -232 -106 -212 -107 6 0 12 -7 12 -15 0 -18 -5
-19 -29 -3 -16 10 -31 3 -97 -42 -114 -77 -194 -141 -191 -153 1 -6 -8 -16
-21 -22 -36 -19 -172 -158 -172 -177 0 -9 -12 -30 -27 -45 -22 -23 -115 -204
-136 -265 -10 -30 118 40 134 73 8 15 32 53 55 85 24 34 41 70 40 84 -1 16 5
26 18 28 10 2 75 61 145 130 129 130 232 210 366 287 63 36 73 44 60 55 -12
10 -12 14 0 26 18 19 24 18 33 -5 7 -18 10 -18 79 12 48 21 69 35 63 41 -6 6
-10 18 -10 28 0 24 -11 23 -110 -15z m-364 -268 c3 -6 0 -15 -7 -20 -22 -14
-29 -11 -29 11 0 21 24 27 36 9z m-136 -119 c0 -5 -4 -10 -10 -10 -5 0 -10 5
-10 10 0 6 5 10 10 10 6 0 10 -4 10 -10z"/>
<path d="M3380 3703 c94 -68 153 -116 211 -170 37 -35 69 -63 72 -63 2 0 7 9
10 19 4 15 -9 31 -53 65 -32 25 -63 46 -68 46 -6 0 -12 4 -14 9 -3 9 -113 78
-158 100 l-25 12 25 -18z"/>
<path d="M928 2971 c-25 -16 -48 -33 -52 -39 -5 -8 36 -22 65 -22 7 0 49 75
49 87 0 9 -21 0 -62 -26z"/>
<path d="M2248 2319 c-61 -75 -86 -149 -49 -149 38 0 96 108 89 166 l-3 29
-37 -46z"/>
<path d="M2041 2629 c-32 -33 -60 -97 -68 -156 -6 -43 -5 -47 10 -35 18 15 90
189 84 205 -2 6 -14 -1 -26 -14z"/>
<path d="M3001 2314 c-88 -99 -145 -219 -139 -290 7 -82 71 -63 120 36 19 37
33 90 43 159 21 136 18 144 -24 95z"/>
<path d="M1627 2497 c-29 -92 -17 -144 18 -77 16 30 21 130 7 130 -5 0 -16
-24 -25 -53z"/>
<path d="M1815 2507 c-9 -24 -15 -61 -13 -83 l3 -39 19 28 c22 32 34 121 18
131 -6 3 -18 -13 -27 -37z"/>
<path d="M2978 832 c-76 -24 -114 -40 -108 -46 12 -12 92 12 183 54 80 37 68
35 -75 -8z"/>
<path d="M2775 783 c-11 -2 -81 -10 -155 -17 l-135 -14 160 2 c144 1 160 3
163 19 2 9 0 16 -5 16 -4 -1 -17 -4 -28 -6z"/>
<path d="M2526 1805 c-3 -9 0 -15 9 -15 9 0 12 6 9 15 -4 8 -7 15 -9 15 -2 0
-5 -7 -9 -15z"/>
<path d="M3334 1815 c-8 -21 3 -45 20 -45 16 0 31 34 21 50 -9 15 -35 12 -41
-5z"/>
<path d="M3524 1815 c-8 -21 3 -45 20 -45 16 0 31 34 21 50 -9 15 -35 12 -41
-5z"/>
<path d="M3710 1800 c0 -25 4 -31 18 -28 11 2 17 12 17 28 0 16 -6 26 -17 28
-14 3 -18 -3 -18 -28z"/>
<path d="M2034 1655 c-9 -22 22 -53 37 -38 15 15 7 47 -14 51 -9 2 -20 -4 -23
-13z"/>
<path d="M3100 1660 c0 -5 7 -10 15 -10 8 0 15 5 15 10 0 6 -7 10 -15 10 -8 0
-15 -4 -15 -10z"/>
</g>
</svg>
