<?xml version="1.0" standalone="no"?>
<!DOCTYPE svg PUBLIC "-//W3C//DTD SVG 20010904//EN"
 "http://www.w3.org/TR/2001/REC-SVG-20010904/DTD/svg10.dtd">
<svg version="1.0" xmlns="http://www.w3.org/2000/svg"
 width="900.000000pt" height="440.000000pt" viewBox="0 0 900.000000 440.000000"
 preserveAspectRatio="xMidYMid meet">

<g transform="translate(0.000000,440.000000) scale(0.100000,-0.100000)"
fill="#000000" stroke="none">
<path d="M4250 4380 c-903 -111 -1639 -781 -1825 -1664 -70 -330 -57 -708 35
-1029 164 -568 559 -1043 1090 -1308 343 -171 717 -246 1089 -219 1023 75
1830 840 1962 1860 17 136 15 392 -5 535 -86 616 -416 1141 -936 1490 -109 72
-357 194 -480 235 -107 35 -227 65 -345 86 -98 18 -481 26 -585 14z m-393
-1372 l612 -611 78 70 c43 39 103 97 134 130 l56 58 5 115 c10 199 0 184 357
543 250 251 311 307 333 307 28 0 58 -31 58 -59 0 -8 -126 -141 -279 -296
-153 -154 -286 -294 -295 -312 -17 -33 -22 -83 -8 -83 4 0 147 140 317 310
255 255 315 310 337 310 25 0 48 -23 48 -46 0 -5 -146 -155 -326 -334 l-325
-326 20 -25 20 -24 323 321 c178 177 330 324 339 327 21 7 59 -19 59 -41 0 -9
-142 -159 -315 -332 -173 -173 -315 -318 -315 -322 0 -12 58 -9 83 3 12 6 148
137 302 290 243 241 285 279 311 279 37 0 54 -16 54 -49 0 -20 -66 -91 -297
-324 -360 -360 -356 -357 -546 -365 l-122 -5 -45 -46 c-25 -26 -83 -86 -130
-135 l-85 -88 65 -60 c210 -194 388 -342 685 -568 357 -273 457 -387 442 -501
-15 -110 -147 -206 -246 -179 -98 26 -194 125 -488 505 -299 387 -531 654
-569 655 -25 0 -125 -116 -481 -560 -143 -179 -293 -360 -333 -403 -126 -136
-234 -206 -318 -207 -114 0 -234 130 -219 239 17 127 135 255 517 559 286 228
550 445 550 451 0 3 -32 26 -71 50 -191 117 -470 386 -675 651 -197 253 -316
526 -290 665 7 33 36 75 53 75 4 0 283 -275 620 -612z"/>
</g>
</svg>
