<?xml version="1.0" standalone="no"?>
<!DOCTYPE svg PUBLIC "-//W3C//DTD SVG 20010904//EN"
 "http://www.w3.org/TR/2001/REC-SVG-20010904/DTD/svg10.dtd">
<svg version="1.0" xmlns="http://www.w3.org/2000/svg"
 width="1118.000000pt" height="1279.000000pt" viewBox="0 0 1118.000000 1279.000000"
 preserveAspectRatio="xMidYMid meet">

<g transform="translate(0.000000,1279.000000) scale(0.100000,-0.100000)"
fill="#000000" stroke="none">
<path d="M5933 8433 c-33 -32 -68 -115 -83 -201 -33 -193 -60 -621 -60 -967 0
-156 -6 -212 -36 -337 -3 -15 -21 -44 -39 -66 -34 -39 -61 -52 -175 -85 -72
-21 -116 -66 -136 -138 -17 -62 -15 -148 16 -749 55 -1056 52 -1609 -10 -1852
-58 -228 -148 -206 -199 48 -67 337 -71 1165 -9 2246 20 354 10 387 -161 526
-118 97 -144 129 -173 208 -19 54 -20 73 -15 239 4 99 11 212 16 250 6 39 16
106 22 150 6 44 15 105 21 135 l11 55 8 -40 c4 -22 12 -75 18 -118 15 -105 49
-241 76 -302 26 -59 85 -115 121 -115 36 0 77 47 98 112 22 67 46 192 46 238
0 75 17 59 34 -32 28 -147 64 -245 106 -289 90 -95 159 -16 199 223 22 137 48
518 38 560 -8 31 -45 48 -58 27 -5 -8 -9 -68 -9 -134 0 -66 -7 -185 -15 -265
-24 -224 -35 -283 -69 -349 -56 -107 -122 91 -166 494 -32 300 -33 307 -52
319 -11 7 -21 7 -27 1 -5 -6 -12 -82 -16 -170 -14 -391 -65 -665 -124 -665
-59 0 -128 287 -157 657 -4 63 -10 86 -25 99 -17 15 -21 16 -34 3 -24 -25 -87
-372 -114 -634 -43 -422 -10 -533 209 -700 133 -101 143 -132 129 -410 -4 -99
-16 -331 -25 -515 -21 -422 -24 -1270 -6 -1485 26 -300 71 -485 137 -550 56
-57 105 -59 154 -7 43 45 66 108 86 237 33 206 37 317 32 785 -5 437 -12 630
-37 1065 -6 99 -14 289 -17 422 -5 232 -5 243 16 286 24 50 37 58 141 88 90
25 130 54 167 117 57 98 64 151 73 572 8 346 20 580 35 680 29 188 64 290 98
290 43 0 136 -192 206 -420 40 -133 53 -179 80 -290 104 -434 147 -750 138
-1010 -6 -162 -23 -249 -69 -348 -20 -42 -93 -159 -109 -172 -22 -20 -71 -107
-88 -156 -49 -149 -57 -339 -36 -964 22 -689 10 -981 -45 -1096 -40 -81 -89
-83 -114 -6 -27 84 -35 246 -46 957 -18 1188 -20 1325 -26 1475 -6 141 -12
170 -40 170 -27 0 -27 110 6 -1840 12 -698 21 -784 96 -850 40 -34 95 -41 132
-14 35 25 70 105 89 206 15 78 18 152 18 468 -1 206 -5 562 -9 790 -9 416 -6
493 26 635 14 65 25 86 107 203 99 141 130 209 157 347 19 94 18 397 -1 545
-27 206 -43 301 -85 485 -124 546 -247 871 -352 935 -44 27 -60 25 -95 -7z"/>
</g>
</svg>
